<?xml version="1.0" standalone="no"?>
<!DOCTYPE svg PUBLIC "-//W3C//DTD SVG 20010904//EN"
 "http://www.w3.org/TR/2001/REC-SVG-20010904/DTD/svg10.dtd">
<svg version="1.0" xmlns="http://www.w3.org/2000/svg"
 width="700.000000pt" height="700.000000pt" viewBox="0 0 700.000000 700.000000"
 preserveAspectRatio="xMidYMid meet">
<metadata>
Created by potrace 1.14, written by Peter Selinger 2001-2017
</metadata>
<g transform="translate(0.000000,700.000000) scale(0.100000,-0.100000)"
fill="#000000" stroke="none">
<path d="M650 6985 c-213 -43 -401 -170 -521 -353 -47 -72 -74 -132 -107 -242
-16 -51 -17 -269 -20 -2845 -2 -2081 0 -2809 9 -2865 51 -333 312 -602 647
-666 110 -21 5573 -21 5684 0 329 63 581 315 644 644 21 110 21 5574 0 5684
-64 330 -314 580 -644 644 -106 20 -5591 19 -5692 -1z m1438 -1276 c53 -5 138
-19 187 -31 113 -25 295 -95 295 -113 0 -7 -36 -105 -80 -216 -64 -164 -83
-204 -97 -203 -10 1 -52 16 -93 34 -137 57 -213 74 -345 74 -116 1 -123 0
-187 -32 -167 -82 -251 -272 -252 -572 0 -235 45 -384 150 -487 74 -72 138
-95 279 -101 137 -5 213 7 380 65 72 24 138 47 148 50 16 5 17 -10 17 -226 l0
-232 -53 -23 c-141 -63 -402 -103 -602 -92 -559 29 -862 357 -891 966 -37 754
428 1217 1144 1139z m1852 0 c391 -48 641 -244 754 -592 53 -162 75 -405 57
-610 -46 -497 -280 -787 -711 -880 -136 -30 -424 -30 -560 0 -411 90 -647 356
-710 803 -16 110 -13 384 5 494 73 456 347 728 791 785 99 12 276 13 374 0z
m1790 -905 c78 -23 125 -49 177 -97 72 -66 88 -105 88 -217 0 -83 -4 -102 -27
-154 -35 -73 -135 -177 -327 -339 l-143 -122 253 -5 254 -5 3 -117 3 -118
-476 0 -475 0 0 108 0 107 236 200 c129 109 256 221 280 247 60 65 88 128 81
186 -6 56 -31 91 -88 120 -38 21 -54 23 -124 19 -93 -6 -189 -34 -298 -87
l-78 -38 3 131 3 132 108 27 c59 15 140 32 180 37 100 14 300 6 367 -15z
m-4051 -1609 c298 -49 495 -187 612 -430 103 -213 127 -551 58 -825 -84 -341
-328 -554 -703 -615 -66 -11 -176 -15 -398 -15 l-308 0 0 950 0 950 323 0
c241 0 346 -4 416 -15z m2669 -302 l2 -173 205 0 205 0 0 -55 0 -55 -205 0
-205 0 0 -498 c0 -413 3 -507 15 -549 35 -117 100 -165 224 -166 42 0 106 3
144 7 l67 8 0 -51 0 -50 -42 -13 c-69 -20 -273 -17 -337 6 -73 25 -141 93
-172 171 l-24 60 -3 538 -3 537 -104 0 -105 0 0 39 0 38 103 29 102 30 23 109
c12 61 27 134 33 163 10 52 11 53 42 50 l32 -3 3 -172z m-936 -157 c185 -33
291 -143 329 -340 5 -27 9 -282 9 -568 l0 -519 -47 3 -48 3 -14 105 c-8 58
-15 106 -16 108 -2 2 -38 -32 -81 -76 -133 -132 -265 -181 -459 -169 -261 16
-405 169 -393 421 6 116 35 183 114 255 131 120 338 170 702 171 l122 0 0 88
c-1 166 -46 297 -123 353 -119 87 -338 82 -559 -10 -39 -17 -73 -29 -74 -28
-10 10 -43 100 -39 107 8 13 164 66 245 84 133 28 222 31 332 12z m2381 -17
c84 -27 154 -81 195 -149 68 -113 66 -97 70 -707 l3 -553 -44 0 c-27 0 -47 5
-50 13 -2 7 -10 55 -17 107 -7 52 -14 96 -15 98 -2 2 -38 -32 -81 -75 -124
-123 -242 -172 -410 -173 -274 0 -444 150 -444 393 0 129 38 219 126 296 126
111 338 160 692 161 l122 0 0 88 c-1 225 -77 363 -223 403 -111 30 -304 5
-457 -61 -40 -16 -74 -29 -76 -27 -10 10 -43 100 -39 107 14 22 247 91 355
104 75 9 230 -4 293 -25z"/>
<path d="M3620 5244 c-132 -48 -208 -145 -252 -322 -32 -125 -31 -409 0 -525
56 -204 159 -306 330 -327 227 -28 381 78 444 306 30 109 33 428 5 546 -36
153 -109 257 -215 306 -48 22 -74 27 -162 29 -78 2 -117 -1 -150 -13z"/>
<path d="M1072 2258 l3 -833 235 1 c262 1 357 13 491 65 90 35 201 109 253
171 89 104 153 254 177 416 17 124 7 385 -20 486 -46 173 -137 309 -265 394
-160 107 -278 132 -624 132 l-252 0 2 -832z"/>
<path d="M3437 2019 c-361 -18 -518 -73 -582 -204 -51 -103 -33 -257 38 -333
47 -51 114 -75 222 -80 165 -7 279 31 376 127 96 97 129 192 129 379 0 92 -3
122 -12 120 -7 0 -84 -5 -171 -9z"/>
<path d="M5747 2019 c-330 -16 -489 -64 -561 -168 -36 -51 -47 -93 -47 -178 0
-172 93 -261 284 -271 156 -8 273 29 370 118 98 90 135 191 139 385 3 100 1
120 -12 121 -8 1 -86 -2 -173 -7z"/>
</g>
</svg>
